<svg width="31" height="30" viewBox="0 0 31 30" fill="none" xmlns="http://www.w3.org/2000/svg">
<path fill-rule="evenodd" clip-rule="evenodd" d="M30.25 13.4308C30.25 4.55514 26.7884 0.483856 15.25 0.483856C3.71154 0.483856 0.25 4.55514 0.25 13.4308C0.25 19.7472 2.00317 23.6305 7.17308 25.3447V28.333C7.17308 29.433 8.7011 29.9353 9.49257 29.0957L12.1604 26.2656C13.1192 26.3405 14.1478 26.3776 15.25 26.3776C26.7884 26.3776 30.25 22.3063 30.25 13.4308ZM12.7978 24.2241C13.5626 24.2789 14.3791 24.3062 15.25 24.3062C25.0133 24.3062 27.9424 20.8863 27.9424 13.4308C27.9424 5.97524 25.0133 2.55536 15.25 2.55536C5.48668 2.55536 2.5577 5.97524 2.5577 13.4308C2.5577 18.7005 4.02105 21.9541 8.32692 23.4088V27.836C8.32692 28.222 8.86311 28.3983 9.14082 28.1036L12.7978 24.2241Z" fill="white"/>
<path d="M10.4748 11.2592L10.4313 11.2809L10.393 11.3096C10.0966 11.531 9.65242 12.1388 10.0416 12.89C10.3658 13.5159 11.0882 14.7942 12.3577 15.7573C13.5991 16.6993 14.9248 17.2059 15.7956 17.3718L15.8503 17.3823H15.9002C15.9026 17.3825 15.9079 17.3829 15.9163 17.3841C15.937 17.3867 15.962 17.3906 16.0013 17.3968C16.008 17.3978 16.015 17.399 16.0223 17.4002C16.2902 17.4429 16.9326 17.5455 17.471 17.061C17.8165 16.7499 18.1319 16.4257 18.2677 16.2798C18.363 16.2012 18.6738 16.0385 19.0671 16.1586C19.8117 16.3859 20.697 16.8988 21.125 17.1588C21.4562 17.3603 22.2061 17.8455 22.5442 18.066C22.5722 18.0843 22.6385 18.1445 22.674 18.2278C22.7025 18.2944 22.7178 18.3859 22.6494 18.5184C22.5223 18.764 22.1356 19.2329 21.6119 19.643C21.0787 20.0607 20.5238 20.3226 20.0791 20.3226C20.0807 20.3226 20.0791 20.3224 20.0741 20.3218C20.0543 20.3194 19.9807 20.3104 19.8348 20.2808C19.6709 20.2476 19.4495 20.1954 19.1788 20.1218C18.6381 19.9748 17.9125 19.7458 17.0745 19.4201C15.3973 18.7685 13.2858 17.7365 11.3091 16.2166C10.0657 15.2607 8.89256 13.9389 7.97906 12.7017C7.05793 11.454 6.44174 10.3482 6.27404 9.83756L6.26229 9.80175L6.24464 9.76807C6.20288 9.68843 6.14405 9.5182 6.14287 9.32514C6.14172 9.13868 6.19348 8.96052 6.32998 8.81279C6.78 8.32567 7.25647 7.847 8.30766 7.38767C8.40558 7.34489 8.55896 7.30716 8.70972 7.30497C8.86428 7.30272 8.94485 7.33739 8.97699 7.36289C9.37921 7.68144 10.0027 8.24375 10.4227 8.7243C10.6397 8.97253 10.9019 9.28788 11.1205 9.56185C11.2298 9.69888 11.3261 9.82314 11.3995 9.92194C11.4362 9.97149 11.4656 10.0124 11.4872 10.044C11.502 10.0657 11.51 10.0783 11.5133 10.0838C11.5151 10.0893 11.5233 10.1127 11.5306 10.1554C11.5397 10.2091 11.544 10.2752 11.5379 10.3443C11.5252 10.4856 11.4737 10.5991 11.3813 10.6756C11.0673 10.9353 10.6418 11.1757 10.4748 11.2592ZM15.5463 5.82204C15.5467 5.82177 15.547 5.82149 15.5473 5.8212C15.555 5.81467 15.5708 5.80643 15.5956 5.80643C19.8727 5.80643 23.284 8.74628 23.2857 12.3126C23.2851 12.3134 23.2839 12.3146 23.2822 12.3161C23.2745 12.3226 23.2586 12.3308 23.2338 12.3308C23.2091 12.3308 23.1932 12.3226 23.1855 12.3161C23.1838 12.3146 23.1827 12.3134 23.182 12.3126C23.1803 8.70913 19.7534 5.83765 15.5956 5.83765C15.5708 5.83765 15.555 5.8294 15.5473 5.82287C15.547 5.82258 15.5467 5.8223 15.5463 5.82204ZM15.5473 9.81869C15.547 9.8184 15.5467 9.8181 15.5463 9.81791C15.5467 9.81762 15.547 9.81733 15.5473 9.81704C15.555 9.81056 15.5708 9.80223 15.5956 9.80223C17.2767 9.80223 18.5835 10.9531 18.5852 12.3126C18.5846 12.3134 18.5834 12.3146 18.5817 12.3161C18.574 12.3226 18.5582 12.3308 18.5334 12.3308C18.5086 12.3308 18.4928 12.3226 18.4851 12.3161C18.4833 12.3146 18.4823 12.3134 18.4815 12.3126C18.4798 10.916 17.1575 9.83349 15.5956 9.83349C15.5708 9.83349 15.555 9.82527 15.5473 9.81869ZM15.5473 7.82078C15.547 7.8205 15.5467 7.82022 15.5463 7.81996C15.5467 7.81969 15.547 7.81941 15.5473 7.81913C15.555 7.8126 15.5708 7.80435 15.5956 7.80435C18.5747 7.80435 20.9337 9.84965 20.9355 12.3126C20.9348 12.3134 20.9337 12.3146 20.932 12.3161C20.9243 12.3226 20.9084 12.3308 20.8837 12.3308C20.8588 12.3308 20.843 12.3226 20.8353 12.3161C20.8336 12.3146 20.8325 12.3134 20.8318 12.3126C20.8301 9.81259 18.4554 7.83556 15.5956 7.83556C15.5708 7.83556 15.555 7.82731 15.5473 7.82078Z" fill="white"/>
<path d="M16.0013 17.3968C15.962 17.3906 15.937 17.3867 15.9163 17.3841C15.9079 17.3829 15.9026 17.3825 15.9002 17.3823H15.8503L15.7956 17.3718C14.9248 17.2059 13.5991 16.6993 12.3577 15.7573C11.0882 14.7942 10.3658 13.5159 10.0416 12.89C9.65242 12.1388 10.0966 11.531 10.393 11.3096L10.4313 11.2809L10.4748 11.2592C10.6418 11.1757 11.0673 10.9353 11.3813 10.6756C11.4737 10.5991 11.5252 10.4856 11.5379 10.3443C11.544 10.2752 11.5397 10.2091 11.5306 10.1554C11.5233 10.1127 11.5151 10.0893 11.5133 10.0838C11.51 10.0783 11.502 10.0657 11.4872 10.044C11.4656 10.0124 11.4362 9.97149 11.3995 9.92194C11.3261 9.82314 11.2298 9.69888 11.1205 9.56185C10.9019 9.28788 10.6397 8.97253 10.4227 8.7243C10.0027 8.24375 9.37921 7.68144 8.97699 7.36289C8.94485 7.33739 8.86428 7.30272 8.70972 7.30497C8.55896 7.30716 8.40558 7.34489 8.30766 7.38767C7.25647 7.847 6.78 8.32567 6.32998 8.81279C6.19348 8.96052 6.14172 9.13868 6.14287 9.32514C6.14405 9.5182 6.20288 9.68843 6.24464 9.76807L6.26229 9.80175L6.27404 9.83756C6.44174 10.3482 7.05793 11.454 7.97906 12.7017C8.89256 13.9389 10.0657 15.2607 11.3091 16.2166C13.2858 17.7365 15.3973 18.7685 17.0745 19.4201C17.9125 19.7458 18.6381 19.9748 19.1788 20.1218C19.4495 20.1954 19.6709 20.2476 19.8348 20.2808C19.9807 20.3104 20.0543 20.3194 20.0741 20.3218C20.0791 20.3224 20.0807 20.3226 20.0791 20.3226C20.5238 20.3226 21.0787 20.0607 21.6119 19.643C22.1356 19.2329 22.5223 18.764 22.6494 18.5184C22.7178 18.3859 22.7025 18.2944 22.674 18.2278C22.6385 18.1445 22.5722 18.0843 22.5442 18.066C22.2061 17.8455 21.4562 17.3603 21.125 17.1588C20.697 16.8988 19.8117 16.3859 19.0671 16.1586C18.6738 16.0385 18.363 16.2012 18.2677 16.2798C18.1319 16.4257 17.8165 16.7499 17.471 17.061C16.9326 17.5455 16.2902 17.4429 16.0223 17.4002C16.015 17.399 16.008 17.3978 16.0013 17.3968ZM16.0013 17.3968L16.0936 16.9202M15.5463 5.82204C15.5467 5.82177 15.547 5.82149 15.5473 5.8212C15.555 5.81467 15.5708 5.80643 15.5956 5.80643C19.8727 5.80643 23.284 8.74628 23.2857 12.3126C23.2851 12.3134 23.2839 12.3146 23.2822 12.3161C23.2745 12.3226 23.2586 12.3308 23.2338 12.3308C23.2091 12.3308 23.1932 12.3226 23.1855 12.3161C23.1838 12.3146 23.1827 12.3134 23.182 12.3126C23.1803 8.70913 19.7534 5.83765 15.5956 5.83765C15.5708 5.83765 15.555 5.8294 15.5473 5.82287C15.547 5.82258 15.5467 5.8223 15.5463 5.82204ZM15.5473 9.81869C15.547 9.8184 15.5467 9.8181 15.5463 9.81791C15.5467 9.81762 15.547 9.81733 15.5473 9.81704C15.555 9.81056 15.5708 9.80223 15.5956 9.80223C17.2767 9.80223 18.5835 10.9531 18.5852 12.3126C18.5846 12.3134 18.5834 12.3146 18.5817 12.3161C18.574 12.3226 18.5582 12.3308 18.5334 12.3308C18.5086 12.3308 18.4928 12.3226 18.4851 12.3161C18.4833 12.3146 18.4823 12.3134 18.4815 12.3126C18.4798 10.916 17.1575 9.83349 15.5956 9.83349C15.5708 9.83349 15.555 9.82527 15.5473 9.81869ZM15.5473 7.82078C15.547 7.8205 15.5467 7.82022 15.5463 7.81996C15.5467 7.81969 15.547 7.81941 15.5473 7.81913C15.555 7.8126 15.5708 7.80435 15.5956 7.80435C18.5747 7.80435 20.9337 9.84965 20.9355 12.3126C20.9348 12.3134 20.9337 12.3146 20.932 12.3161C20.9243 12.3226 20.9084 12.3308 20.8837 12.3308C20.8588 12.3308 20.843 12.3226 20.8353 12.3161C20.8336 12.3146 20.8325 12.3134 20.8318 12.3126C20.8301 9.81259 18.4554 7.83556 15.5956 7.83556C15.5708 7.83556 15.555 7.82731 15.5473 7.82078Z" stroke="white" stroke-width="1.24176" stroke-linecap="round"/>
</svg>
