<svg width="33" height="33" viewBox="0 0 33 33" fill="none" xmlns="http://www.w3.org/2000/svg">
<path d="M2.55987 31L4.0816 23.9576C2.12573 20.8826 1.36273 17.2019 1.93578 13.606C2.50882 10.0101 4.37852 6.74626 7.19407 4.42675C10.0096 2.10723 13.5775 0.891491 17.2284 1.00761C20.8793 1.12373 24.3622 2.56374 27.0236 5.05746C29.6851 7.55118 31.3422 10.9272 31.6841 14.5522C32.026 18.1771 31.0291 21.8019 28.8806 24.7463C26.732 27.6908 23.5794 29.7526 20.0142 30.5449C16.449 31.3372 12.7163 30.8056 9.51637 29.0498L2.55987 31Z" fill="#25D366" stroke="white" stroke-width="1.76562"/>
<path d="M22.6685 17.9986C22.3424 17.7819 22.0164 17.6736 21.6903 18.1069L20.3859 19.8405C20.0598 20.0572 19.8425 20.1655 19.4077 19.9488C17.7772 19.0821 15.4946 18.1069 13.5381 14.8566C13.4294 14.4232 13.6468 14.2065 13.8642 13.9898L14.8425 12.473C15.0599 12.2563 14.9512 12.0396 14.8425 11.8229L13.5381 8.68093C13.212 7.81417 12.8859 7.92252 12.5599 7.92252H11.6903C11.4729 7.92252 11.0381 8.03086 10.6033 8.46424C8.21204 10.8478 9.1903 14.2065 10.9294 16.3734C11.2555 16.8068 13.4294 20.7072 18.1033 22.7658C21.5816 24.2826 22.3424 24.0659 23.3207 23.8492C24.5164 23.7409 25.712 22.7658 26.2555 21.7907C26.3642 21.4656 26.9077 20.0572 26.4729 19.8405" fill="white"/>
</svg>
